<?xml version="1.0" standalone="no"?>
<!DOCTYPE svg PUBLIC "-//W3C//DTD SVG 20010904//EN"
        "http://www.w3.org/TR/2001/REC-SVG-20010904/DTD/svg10.dtd">
<svg height="794.000000pt" preserveAspectRatio="xMidYMid meet"
     version="1.0" viewBox="0 0 980.000000 794.000000" width="980.000000pt"
     xmlns="http://www.w3.org/2000/svg">

    <g fill="#000000"
       stroke="none" transform="translate(0.000000,794.000000) scale(0.100000,-0.100000)">
        <path d="M4790 7906 l0 -34 -59 5 c-79 7 -160 -8 -332 -63 -170 -55 -281 -67
-349 -40 l-40 16 2 -323 3 -322 60 -30 c51 -25 71 -30 135 -29 86 1 125 11
305 85 106 43 144 54 203 57 l72 4 0 -558 0 -559 -1066 -515 -1065 -515 1120
-3 c617 -1 1626 -1 2242 0 l1122 3 -1101 515 -1101 515 -1 913 0 912 -75 0
-75 0 0 -34z"/>
        <path d="M2862 3043 l3 -1898 2000 0 2000 0 0 1895 0 1895 -2003 3 -2002 2 2
-1897z m928 852 l0 -535 -180 0 -180 0 0 535 0 535 180 0 180 0 0 -535z m860
0 l0 -535 -180 0 -180 0 0 535 0 535 180 0 180 0 0 -535z m860 0 l0 -535 -180
0 -180 0 0 535 0 535 180 0 180 0 0 -535z m858 3 l-3 -533 -177 -3 -178 -2 0
535 0 535 180 0 180 0 -2 -532z m-2578 -1608 l0 -570 -180 0 -180 0 0 570 0
570 180 0 180 0 0 -570z m1650 -145 l0 -715 -575 0 -575 0 0 715 0 715 575 0
575 0 0 -715z m930 145 l0 -570 -180 0 -180 0 0 570 0 570 180 0 180 0 0 -570z"/>
        <path d="M0 2395 l0 -1255 1358 2 1357 3 3 1253 2 1252 -1360 0 -1360 0 0
-1255z m790 505 l0 -320 -180 0 -180 0 0 320 0 320 180 0 180 0 0 -320z m780
0 l0 -320 -175 0 -175 0 0 320 0 320 175 0 175 0 0 -320z m720 0 l0 -320 -180
0 -180 0 0 320 0 320 180 0 180 0 0 -320z m-1502 -1002 l-3 -323 -177 -3 -178
-2 0 325 0 325 180 0 180 0 -2 -322z m782 -3 l0 -325 -175 0 -175 0 0 325 0
325 175 0 175 0 0 -325z m720 0 l0 -325 -177 2 -178 3 -3 323 -2 322 180 0
180 0 0 -325z"/>
        <path d="M7082 2398 l3 -1253 1358 -3 1357 -2 0 1255 0 1255 -1360 0 -1360 0
2 -1252z m788 502 l0 -320 -180 0 -180 0 0 320 0 320 180 0 180 0 0 -320z
m710 0 l0 -320 -175 0 -175 0 0 320 0 320 175 0 175 0 0 -320z m720 0 l0 -320
-180 0 -180 0 0 320 0 320 180 0 180 0 0 -320z m-1430 -1005 l0 -325 -180 0
-180 0 0 325 0 325 180 0 180 0 0 -325z m710 0 l0 -325 -175 0 -175 0 0 325 0
325 175 0 175 0 0 -325z m720 0 l0 -325 -180 0 -180 0 0 325 0 325 180 0 180
0 0 -325z"/>
        <path d="M0 715 l0 -145 4900 0 4900 0 0 145 0 145 -4900 0 -4900 0 0 -145z"/>
        <path d="M0 145 l0 -145 4900 0 4900 0 0 145 0 145 -4900 0 -4900 0 0 -145z"/>
    </g>
</svg>
